<svg width="24" height="24" viewBox="0 0 24 24" fill="none" xmlns="http://www.w3.org/2000/svg">
<path d="M19.0703 4.92969C20.88 6.73933 21.9992 9.23933 21.9992 12.0008C21.9992 14.7622 20.88 17.2622 19.0703 19.0718" stroke="black" stroke-width="2" stroke-linecap="round" stroke-linejoin="round"/>
<path d="M15.8906 8.11133C16.8859 9.10663 17.5015 10.4816 17.5015 12.0004C17.5015 13.5192 16.8859 14.8942 15.8906 15.8895" stroke="black" stroke-width="2" stroke-linecap="round" stroke-linejoin="round"/>
<path d="M5.2759 7.99999H4C2.89543 7.99999 2 8.89542 2 9.99999V14C2 15.1046 2.89543 16 4 16H5.2759C5.74377 16 6.19684 16.164 6.55627 16.4635L10.3598 19.6332C11.0111 20.1759 12 19.7128 12 18.8649V5.13503C12 4.28719 11.0111 3.82403 10.3598 4.36681L6.55627 7.53643C6.19684 7.83596 5.74377 7.99999 5.2759 7.99999Z" stroke="black" stroke-width="2" stroke-linecap="round" stroke-linejoin="round"/>
</svg>
