<svg width="20" height="20" viewBox="0 0 20 20" fill="none" xmlns="http://www.w3.org/2000/svg">
<path d="M12.7011 2.5H7.29892C6.62812 2.49999 6.07447 2.49998 5.62348 2.53683C5.15507 2.5751 4.72448 2.65724 4.32003 2.86331C3.69283 3.18289 3.18289 3.69283 2.86331 4.32003C2.65724 4.72448 2.5751 5.15506 2.53683 5.62348C2.49998 6.07447 2.49999 6.6281 2.5 7.2989V12.7011C2.49999 13.3719 2.49998 13.9255 2.53683 14.3765C2.5751 14.8449 2.65724 15.2755 2.86331 15.68C3.18289 16.3072 3.69283 16.8171 4.32003 17.1367C4.72448 17.3428 5.15506 17.4249 5.62348 17.4632C6.07447 17.5 6.6281 17.5 7.2989 17.5H12.7011C13.3719 17.5 13.9255 17.5 14.3765 17.4632C14.8449 17.4249 15.2755 17.3428 15.68 17.1367C16.3072 16.8171 16.8171 16.3072 17.1367 15.68C17.3428 15.2755 17.4249 14.8449 17.4632 14.3765C17.5 13.9255 17.5 13.3719 17.5 12.7011V7.2989C17.5 6.6281 17.5 6.07447 17.4632 5.62348C17.4249 5.15506 17.3428 4.72448 17.1367 4.32003C16.8171 3.69283 16.3072 3.18289 15.68 2.86331C15.2755 2.65724 14.8449 2.5751 14.3765 2.53683C13.9255 2.49998 13.3719 2.49999 12.7011 2.5Z" fill="#DD3737"/>
</svg>
